# Blender v2.82 (sub 7) OBJ File: 'cb.blend'
# www.blender.org
mtllib cornellbox.mtl
o shortBox_shortBox_.005
v 0.700000 -0.403829 -3.048277
v -0.050000 -0.403830 -2.648277
v 0.530000 -0.403830 -2.468277
v -0.050000 -0.403830 -2.648277
v 0.130000 -1.003829 -3.218277
v -0.050000 -1.003829 -2.648277
v 0.530000 -0.403830 -2.468277
v -0.050000 -1.003829 -2.648277
v 0.530000 -1.003830 -2.468277
v 0.130000 -0.403828 -3.218277
v 0.700000 -1.003829 -3.048277
v 0.130000 -1.003829 -3.218277
v 0.700000 -0.403829 -3.048277
v 0.530000 -1.003830 -2.468277
v 0.700000 -1.003829 -3.048277
v 0.130000 -0.403828 -3.218277
v 0.130000 -0.403828 -3.218277
v -0.050000 -0.403830 -2.648277
v 0.700000 -0.403829 -3.048277
v 0.530000 -0.403830 -2.468277
vn -0.0000 1.0000 0.0000
vn -0.9536 0.0000 -0.3011
vn -0.2964 -0.0000 0.9551
vn 0.2858 0.0000 -0.9583
vn 0.9596 -0.0000 0.2813
usemtl grey-walls-cubes
s 1
f 1//1 2//1 3//1
f 4//2 5//2 6//2
f 7//3 8//3 9//3
f 10//4 11//4 12//4
f 13//5 14//5 15//5
f 1//1 16//1 2//1
f 4//2 17//2 5//2
f 7//3 18//3 8//3
f 10//4 19//4 11//4
f 13//5 20//5 14//5
o longBox_shortBox.007
v 0.040000 0.196172 -3.099096
v -0.710000 0.196172 -3.499096
v -0.530000 0.196170 -2.919096
v -0.530000 0.196170 -2.919096
v -0.710000 -1.003828 -3.499096
v -0.530000 -1.003829 -2.919096
v -0.710000 0.196172 -3.499096
v -0.140000 -1.003828 -3.679096
v -0.710000 -1.003828 -3.499096
v -0.140000 0.196172 -3.679096
v 0.040000 -1.003829 -3.099096
v -0.140000 -1.003828 -3.679096
v 0.040000 0.196172 -3.099096
v -0.530000 -1.003829 -2.919096
v 0.040000 -1.003829 -3.099096
v -0.140000 0.196172 -3.679096
v -0.710000 0.196172 -3.499096
v -0.140000 0.196172 -3.679096
v 0.040000 0.196172 -3.099096
v -0.530000 0.196170 -2.919096
vn -0.0000 1.0000 0.0000
vn -0.9551 -0.0000 0.2964
vn -0.3011 0.0000 -0.9536
vn 0.9551 0.0000 -0.2964
vn 0.3011 -0.0000 0.9536
usemtl grey-walls-cubes
s 1
f 21//6 22//6 23//6
f 24//7 25//7 26//7
f 27//8 28//8 29//8
f 30//9 31//9 32//9
f 33//10 34//10 35//10
f 21//6 36//6 22//6
f 24//7 37//7 25//7
f 27//8 38//8 28//8
f 30//9 39//9 31//9
f 33//10 40//10 34//10
o ceiling.008
v -1.020000 0.986172 -4.049096
v -0.010000 0.986170 -3.034096
v -1.020000 0.986170 -3.034096
v -0.010000 0.986172 -4.049096
v 1.000000 0.986170 -3.034096
v 1.000000 0.986170 -2.019096
v 1.000000 0.986172 -4.049096
v -0.010000 0.986170 -2.019096
v -1.020000 0.986170 -2.019096
vn 0.0000 -1.0000 -0.0000
usemtl grey-walls-cubes
s 1
f 41//11 42//11 43//11
f 41//11 44//11 42//11
f 42//11 45//11 46//11
f 42//11 44//11 45//11
f 44//11 47//11 45//11
f 43//11 48//11 49//11
f 43//11 42//11 48//11
f 42//11 46//11 48//11
o leftWall.009
v -1.010000 -1.003830 -2.019096
v -1.015000 -0.008830 -3.034096
v -1.015000 -0.008830 -2.019096
v -1.000000 -1.003829 -3.034096
v -1.005000 -0.008828 -4.049096
v -1.020000 0.986172 -4.049096
v -0.990000 -1.003828 -4.049096
v -1.020000 0.986170 -3.034096
v -1.020000 0.986170 -2.019096
vn 0.9999 0.0100 0.0049
vn 1.0000 0.0050 0.0000
vn 0.9998 0.0151 0.0099
vn 0.9999 0.0101 0.0050
usemtl red-wall
s 1
f 50//12 51//12 52//13
f 50//12 53//14 51//12
f 51//12 54//14 55//15
f 51//12 53//14 54//14
f 53//14 56//14 54//14
f 52//13 57//13 58//13
f 52//13 51//12 57//13
f 51//12 55//15 57//13
o backWall.008
v -0.990000 -1.003828 -4.049096
v 0.005000 -0.008828 -4.049096
v -1.005000 -0.008828 -4.049096
v 0.005000 -1.003828 -4.049096
v 1.000000 -0.008828 -4.049096
v 1.000000 0.986172 -4.049096
v 1.000000 -1.003828 -4.049096
v -0.010000 0.986172 -4.049096
v -1.020000 0.986172 -4.049096
vn 0.0000 0.0000 1.0000
usemtl grey-walls-cubes
s 1
f 59//16 60//16 61//16
f 59//16 62//16 60//16
f 60//16 63//16 64//16
f 60//16 62//16 63//16
f 62//16 65//16 63//16
f 61//16 66//16 67//16
f 61//16 60//16 66//16
f 60//16 64//16 66//16
o rightWall.008
v 1.000000 -1.003830 -2.019096
v 1.000000 -0.008830 -3.034096
v 1.000000 -1.003829 -3.034096
v 1.000000 -0.008830 -2.019096
v 1.000000 0.986170 -3.034096
v 1.000000 0.986172 -4.049096
v 1.000000 0.986170 -2.019096
v 1.000000 -0.008828 -4.049096
v 1.000000 -1.003828 -4.049096
vn -1.0000 0.0000 0.0000
usemtl green-wall
s 1
f 68//17 69//17 70//17
f 68//17 71//17 69//17
f 69//17 72//17 73//17
f 69//17 71//17 72//17
f 71//17 74//17 72//17
f 70//17 75//17 76//17
f 70//17 69//17 75//17
f 69//17 73//17 75//17
o floor.008
v 1.000000 -1.003830 -2.019096
v 0.005000 -1.003829 -3.034096
v -0.005000 -1.003830 -2.019096
v 1.000000 -1.003829 -3.034096
v 0.005000 -1.003828 -4.049096
v -0.990000 -1.003828 -4.049096
v 1.000000 -1.003828 -4.049096
v -1.000000 -1.003829 -3.034096
v -1.010000 -1.003830 -2.019096
vn 0.0000 1.0000 0.0000
usemtl grey-walls-cubes
s 1
f 77//18 78//18 79//18
f 77//18 80//18 78//18
f 78//18 81//18 82//18
f 78//18 80//18 81//18
f 80//18 83//18 81//18
f 79//18 84//18 85//18
f 79//18 78//18 84//18
f 78//18 82//18 84//18
